# AST/ASF file generated using VICON BodyLanguage
# -----------------------------------------------
:version 1.10
:name VICON
:units
  mass 1.0
  length 0.45
  angle deg
:documentation
   .ast/.asf automatically generated from VICON data using
   VICON BodyBuilder and BodyLanguage model FoxedUp or BRILLIANT.MOD
:root
   order TX TY TZ RX RY RZ
   axis XYZ
   position 0 0 0  
   orientation 0 0 0 
:bonedata
  begin
     id 1 
     name lhipjoint
     direction 0.535335 -0.74333 0.401095 
     length 2.04549 
     axis 0 0 0  XYZ
  end
  begin
     id 2 
     name lfemur
     direction 0.34202 -0.939693 0  
     length 6.95643  
     axis 0 0 20  XYZ
    dof rx ry rz
    limits (-160.0 20.0)
           (-70.0 70.0)
           (-60.0 70.0)
  end
  begin
     id 3 
     name ltibia
     direction 0.34192 -0.939729 0   
     length 5.55969   
     axis 0 0 20   XYZ
    dof rx
    limits (-10.0 170.0)
  end
  begin
     id 4 
     name lfoot
     direction 0.216943 -0.596046 0.773088   
     length 2.27918   
     axis -90 7.62852e-016 20   XYZ
    dof rx rz
    limits (-45.0 90.0)
           (-70.0 20.0)
  end
  begin
     id 5 
     name ltoes
     direction 1.53519e-011 -4.21748e-011 1   
     length 1.05562   
     axis -90 7.62852e-016 20   XYZ
    dof rx
    limits (-90.0 20.0)
  end
  begin
     id 6 
     name rhipjoint
     direction -0.576368 -0.719173 0.38806   
     length 2.1142  
     axis 0 0 0  XYZ 
  end
  begin
     id 7 
     name rfemur
     direction -0.34202 -0.939693 0   
     length 7.07928   
     axis 0 0 -20   XYZ
    dof rx ry rz
    limits (-160.0 20.0)
           (-70.0 70.0)
           (-70.0 60.0)
  end
  begin
     id 8 
     name rtibia
     direction -0.34202 -0.939693 0   
     length 5.79974   
     axis 0 0 -20   XYZ
    dof rx
    limits (-10.0 170.0)
 end
 begin
     id 9 
     name rfoot
     direction -0.189288 -0.520065 0.832888   
     length 2.42173  
     axis -90 -7.62852e-016 -20   XYZ
    dof rx rz
    limits (-45.0 90.0)
           (-20.0 70.0)
  end
  begin
     id 10 
     name rtoes
     direction -1.53574e-011 -4.21658e-011 1   
     length 1.14469   
     axis -90 -7.62852e-016 -20   XYZ
    dof rx
    limits (-90.0 20.0)
  end
  begin
     id 11 
     name lowerback
     direction -0.00135702 0.993803 0.111144   
     length 1.91308   
     axis 0 0 0   XYZ
    dof rx ry rz
    limits (-20.0 45.0)
           (-30.0 30.0)
           (-30.0 30.0)
  end
  begin
     id 12 
     name upperback
     direction -0.0056745 0.999813 0.0184631   
     length 1.9212   
     axis 0 0 0   XYZ
    dof rx ry rz
    limits (-20.0 45.0)
           (-30.0 30.0)
           (-30.0 30.0)
  end
  begin
     id 13 
     name thorax
     direction -0.00733434 0.999426 -0.0330788   
     length 1.94196   
     axis 0 0 0   XYZ
    dof rx ry rz
    limits (-20.0 45.0)
           (-30.0 30.0)
           (-30.0 30.0)
  end
  begin
     id 14 
     name lowerneck
     direction 0.0563074 0.996944 -0.0541571   
     length 2.34257   
     axis 0 0 0   XYZ
    dof rx ry rz
    limits (-20.0 45.0)
           (-30.0 30.0)
           (-30.0 30.0)
  end
  begin
     id 15 
     name upperneck
     direction -0.0544519 0.976166 -0.210085   
     length 2.32506   
     axis 0 0 0   XYZ
    dof rx ry rz
    limits (-20.0 45.0)
           (-30.0 30.0)
           (-30.0 30.0)
  end
  begin
     id 16
     name head
     direction -0.0226035 0.997615 -0.0652205  
     length 2.3648  
     axis 0 0 0   XYZ
    dof rx ry rz
    limits (-20.0 45.0)
           (-30.0 30.0)
           (-30.0 30.0)
  end
  begin
     id 17 
     name lclavicle
     direction 0.92109 0.381297 -0.0787716  
     length 4.0487  
     axis 0 0 0   XYZ
    dof ry rz
    limits (-20.0 10.0)
           (0.0 20.0)
  end
  begin
     id 18 
     name lhumerus
     direction 1 -4.48986e-011 3.56724e-027   
     length 4.94991   
     axis 180 -30 -90   XYZ
    dof rx ry rz
    limits (-60.0 90.0)
           (-90.0 90.0)
           (-90.0 90.0)
  end
  begin
     id 19
     name lradius
     direction 1 -4.48981e-011 8.62147e-027   
     length 2.7606   
     axis 180 -30 -90   XYZ
    dof rx
    limits (-10.0 170.0)
  end
  begin
     id 20
     name lwrist
     direction 1 -4.48989e-011 1.59799e-026   
     length 1.3803   
     axis -1.17785e-014 90 90   XYZ
    dof ry
    limits (-180.0 0.0)
 end
  begin
     id 21 
     name lhand
     direction 1 -4.48896e-011 3.19599e-026   
     length 0.843936   
     axis -2.03931e-014 90 90   XYZ
    dof rx rz
    limits (-90.0 90.0)
           (-45.0 45.0)
  end
  begin
     id 22 
     name lfingers
     direction 1 -4.48887e-011 6.39197e-026   
     length 0.680403   
     axis -4.07862e-014 90 90   XYZ
    dof rx
    limits (0.0 90.0)
  end
  begin
     id 23
     name lthumb
     direction 0.707107 -6.348e-011 0.707107   
     length 0.976926   
     axis -90 45 2.85299e-015   XYZ
    dof rx rz
    limits (-45.0 45.0)
           (-45.0 45.0)
  end
  begin
     id 24 
     name rclavicle
     direction -0.951104 0.307692 -0.026953   
     length 4.21801  
     axis 0 0 0   XYZ 
    dof ry rz
    limits (-10.0 20.0)
           (-20.0 0.0)
  end
  begin
     id 25 
     name rhumerus
     direction -1 -4.4896e-011 -1.8171e-018  
     length 4.32982   
     axis 180 30 90   XYZ
    dof rx ry rz
    limits (-90.0 60.0)
           (-90.0 90.0)
           (-90.0 90.0)
  end
  begin
     id 26 
     name rradius
     direction -1 -4.48959e-011 8.25165e-027   
     length 3.20057   
     axis 180 30 90   XYZ
    dof rx
    limits (-10.0 170.0)
  end
  begin
     id 27 
     name rwrist
     direction -1 -4.48997e-011 1.59799e-026   
     length 1.60029   
     axis -1.17785e-014 -90 -90   XYZ
    dof ry
    limits (-180.0 0.0)
  end
  begin
     id 28
     name rhand
     direction -1 -4.49023e-011 3.19599e-026   
     length 0.960433   
     axis -2.03931e-014 -90 -90   XYZ
    dof rx rz
    limits (-90.0 90.0)
           (-45.0 45.0)
  end
  begin
     id 29
     name rfingers
     direction -1 -4.48802e-011 6.39197e-026   
     length 0.774326   
     axis -4.07862e-014 -90 -90   XYZ
    dof rx
    limits (0.0 90.0)
  end
  begin
     id 30
     name rthumb
     direction -0.707107 -6.34876e-011 0.707107   
     length 1.11178   
     axis -90 -45 -2.85299e-015   XYZ
    dof rx rz
    limits (-45.0 45.0)
           (-45.0 45.0)
  end
:hierarchy
  begin
    root lhipjoint rhipjoint lowerback
    lhipjoint lfemur
    lfemur ltibia
    ltibia lfoot
    lfoot ltoes
    rhipjoint rfemur
    rfemur rtibia
    rtibia rfoot
    rfoot rtoes
    lowerback upperback
    upperback thorax
    thorax lowerneck lclavicle rclavicle
    lowerneck upperneck
    upperneck head
    lclavicle lhumerus
    lhumerus lradius
    lradius lwrist
    lwrist lhand lthumb
    lhand lfingers
    rclavicle rhumerus
    rhumerus rradius
    rradius rwrist
    rwrist rhand rthumb
    rhand rfingers
end

#!OML:ASF C:\KaitlinTest1\Natural Motions\Nikki\Session 2\Nikki.ASF
:FULLY-SPECIFIED
:DEGREES
24
root -18.9519 16.6324 5.04499 -156.08 85.3228 -165.699
lowerback -13.2435 -1.6336 0.47876
upperback -3.8845 -2.03389 -0.411689
thorax 3.30359 -0.934525 -1.0159
lowerneck -1.69519 1.77512 8.5234
upperneck 27.1304 4.12152 -5.64314
head 9.01724 2.67084 -3.01023
rclavicle 1.49089e-015 -8.34896e-015
rhumerus -41.7358 -22.1726 -78.9906
rradius 18.3183
rwrist 29.084
rhand -35.9399 3.05621
rfingers 7.12502
rthumb -9.05186 -26.7296
lclavicle 1.49089e-015 -8.34896e-015
lhumerus -41.7597 15.7119 80.9371
lradius 24.1579
lwrist -39.8725
lhand -32.5916 3.41288
lfingers 7.12502
lthumb -5.81994 33.313
rfemur -7.62703 -16.8576 21.001
rtibia 11.1795
rfoot -10.4616 11.5937
rtoes -7.71285e-014
lfemur -10.1589 11.9119 -17.8935
ltibia 10.1324
lfoot -2.08373 -17.1124
ltoes -1.27222e-014
25
root -18.9499 16.632 5.04483 -156.139 85.3293 -165.757
lowerback -13.268 -1.63587 0.471699
upperback -3.86258 -2.03669 -0.414738
thorax 3.33991 -0.935951 -1.01673
lowerneck -1.7475 1.77342 8.54955
upperneck 27.144 4.11438 -5.65849
head 9.03204 2.66719 -3.02036
rclavicle 3.13334e-014 1.11319e-014
rhumerus -41.7179 -22.1997 -78.994
rradius 18.3263
rwrist 29.0935
rhand -35.9488 3.15134
rfingers 7.12502
rthumb -9.0604 -26.6341
lclavicle 3.13334e-014 1.11319e-014
lhumerus -41.5987 14.4037 81.7753
lradius 24.2019
lwrist -38.2784
lhand -32.8626 3.77768
lfingers 7.12502
lthumb -6.08153 33.6704
rfemur -7.61705 -16.8297 20.9876
rtibia 11.1903
rfoot -10.4945 11.5765
rtoes 4.37326e-014
lfemur -10.1454 11.9225 -17.8983
ltibia 10.127
lfoot -2.09005 -17.1104
ltoes 2.06736e-014
26
root -18.948 16.6317 5.04507 -156.077 85.3392 -165.72
lowerback -13.3074 -1.63293 0.463354
upperback -3.86485 -2.03135 -0.411161
thorax 3.35947 -0.932937 -1.00861
lowerneck -1.75771 1.7587 8.52389
upperneck 27.1594 4.0894 -5.63074
head 9.03629 2.65571 -3.00843
rclavicle -1.84373e-014 -8.34896e-015
rhumerus -41.6871 -21.9748 -79.1813
rradius 18.4219
rwrist 28.6788
rhand -35.9778 3.00358
rfingers 7.12502
rthumb -9.08839 -26.7806
lclavicle -1.84373e-014 -8.34896e-015
lhumerus -41.7739 15.7361 80.9539
lradius 24.1929
lwrist -39.7977
lhand -32.7429 3.40839
lfingers 7.12502
lthumb -5.966 33.3044
rfemur -7.64288 -16.8251 20.9971
rtibia 11.2012
rfoot -10.5305 11.5807
rtoes -1.1609e-013
lfemur -10.1543 11.8859 -17.8974
ltibia 10.1112
lfoot -2.08866 -17.0575
ltoes -1.01778e-013
27
root -18.947 16.632 5.04512 -156.2 85.3378 -165.866
lowerback -13.3214 -1.64204 0.452438
upperback -3.8742 -2.04154 -0.406511
thorax 3.35768 -0.937766 -0.99946
lowerneck -1.74337 1.75322 8.48918
upperneck 27.1425 4.0802 -5.61239
head 9.0258 2.64942 -2.99682
rclavicle 1.49089e-014 -4.77083e-015
rhumerus -41.6586 -21.9704 -79.1844
rradius 18.3848
rwrist 28.6046
rhand -35.9746 2.98472
rfingers 7.12502
rthumb -9.08532 -26.7996
lclavicle 1.49089e-014 -4.77083e-015
lhumerus -41.6677 14.4639 81.7594
lradius 24.2665
lwrist -38.2053
lhand -32.9748 3.73904
lfingers 7.12502
lthumb -6.18989 33.6286
rfemur -7.67241 -16.8369 20.9927
rtibia 11.2119
rfoot -10.5171 11.5893
rtoes -4.13472e-014
lfemur -10.1643 11.841 -17.909
ltibia 10.0902
lfoot -2.07722 -17.0229
ltoes -5.725e-014
28
root -18.9445 16.6317 5.0459 -156.16 85.3342 -165.83
lowerback -13.3533 -1.65396 0.440509
upperback -3.8628 -2.05633 -0.398423
thorax 3.38734 -0.94495 -0.987848
lowerneck -1.78436 1.75346 8.51629
upperneck 27.1716 4.08471 -5.6495
head 9.04515 2.65036 -3.01397
rclavicle 3.23025e-015 -4.77083e-015
rhumerus -41.6399 -21.9508 -79.2084
rradius 18.3769
rwrist 28.6152
rhand -35.9714 2.94986
rfingers 7.12502
rthumb -9.08216 -26.8346
lclavicle 3.23025e-015 -4.77083e-015
lhumerus -41.6247 14.4429 81.7774
lradius 24.2195
lwrist -38.1524
lhand -32.9687 3.77138
lfingers 7.12502
lthumb -6.18395 33.6611
rfemur -7.67536 -16.8424 20.9976
rtibia 11.2248
rfoot -10.5301 11.59
rtoes -8.66701e-014
lfemur -10.1469 11.8465 -17.9042
ltibia 10.0662
lfoot -2.08714 -17.0378
ltoes -2.8625e-014
29
root -18.944 16.6316 5.04544 -156.208 85.3372 -165.884
lowerback -13.3371 -1.64544 0.434651
upperback -3.86094 -2.04401 -0.409878
thorax 3.38052 -0.939028 -0.994088
lowerneck -1.80283 1.73589 8.54448
upperneck 27.1543 4.05091 -5.64632
head 9.04035 2.63619 -3.02035
rclavicle 1.16538e-014 4.37326e-015
rhumerus -41.6616 -22.0658 -79.1475
rradius 18.3698
rwrist 28.7638
rhand -35.9194 2.92977
rfingers 7.12502
rthumb -9.03206 -26.8569
lclavicle 1.16538e-014 4.37326e-015
lhumerus -41.5911 14.3645 81.7998
lradius 24.1888
lwrist -37.9796
lhand -33.0428 3.71197
lfingers 7.12502
lthumb -6.25554 33.5996
rfemur -7.67184 -16.8236 20.9931
rtibia 11.2135
rfoot -10.5557 11.5741
rtoes 6.59965e-014
lfemur -10.144 11.7977 -17.9031
ltibia 10.0554
lfoot -2.0741 -16.9831
ltoes 5.40694e-014
30
root -18.9426 16.6317 5.04503 -156.238 85.3292 -165.909
lowerback -13.3247 -1.65479 0.425958
upperback -3.86778 -2.05556 -0.397659
thorax 3.36721 -0.944788 -0.977769
lowerneck -1.80204 1.72209 8.53495
upperneck 27.1705 4.0363 -5.65519
head 9.04451 2.62822 -3.02323
rclavicle -2.5842e-015 0
rhumerus -41.6545 -21.9412 -79.2138
rradius 18.3778
rwrist 28.6336
rhand -35.9743 2.90871
rfingers 7.12502
rthumb -9.08504 -26.8756
lclavicle -2.5842e-015 0
lhumerus -41.5928 14.3888 81.8012
lradius 24.1819
lwrist -37.9184
lhand -33.0641 3.6794
lfingers 7.12502
lthumb -6.27608 33.5664
rfemur -7.6598 -16.8253 20.9865
rtibia 11.2247
rfoot -10.5325 11.5654
rtoes 6.36111e-015
lfemur -10.1195 11.782 -17.9005
ltibia 10.0282
lfoot -2.06537 -16.9714
ltoes -2.8625e-014
